<svg xmlns="http://www.w3.org/2000/svg" viewBox="0 0 121.89 121.89"><defs><style>.cls-1{fill:#1b1b1b;}.cls-2{fill:#f6f5f3;}</style></defs><g id="Слой_2" data-name="Слой 2"><g id="Слой_1-2" data-name="Слой 1"><g id="logo_9"><circle class="cls-1" cx="60.94" cy="60.94" r="60.94"/><g id="Symbols"><g id="header-copy"><g id="logo"><polygon id="Shape" class="cls-2" points="29.76 49.86 92.01 49.86 92.01 42.93 35.98 42.93 35.98 39.47 92.01 39.47 92.01 39.47 92.13 39.47 92.13 22.14 92.01 22.14 92.01 22.14 29.88 22.14 29.88 29.07 85.91 29.07 85.91 32.53 29.88 32.53 29.88 32.53 29.76 32.53 29.76 49.86 29.76 49.86"/><polygon id="Shape-2" data-name="Shape" class="cls-2" points="29.88 80.35 92.01 80.35 92.01 73.42 35.98 73.42 35.98 69.95 92.01 69.95 92.01 69.95 92.13 69.95 92.13 52.63 92.01 52.63 92.01 52.63 29.88 52.63 29.88 59.56 85.91 59.56 85.91 63.02 29.88 63.02 29.88 63.02 29.76 63.02 29.76 80.35 29.88 80.35"/><polygon id="Shape-3" data-name="Shape" class="cls-2" points="58.87 83.12 29.9 83.12 29.9 83.12 29.76 83.12 29.76 99.75 37.21 99.75 37.21 89.77 40.59 89.77 40.59 99.75 48.04 99.75 48.04 89.77 51.42 89.77 51.42 99.75 58.87 99.75 58.87 83.12 58.87 83.12"/><polygon id="Shape-4" data-name="Shape" class="cls-2" points="91.99 99.75 92.13 99.75 92.13 83.12 84.68 83.12 84.68 93.1 81.3 93.1 81.3 83.12 73.85 83.12 73.85 93.1 70.47 93.1 70.47 83.12 63.02 83.12 63.02 99.75 91.99 99.75"/></g></g></g></g></g></g></svg>